<svg width="24" height="24" viewBox="0 0 24 24" fill="none" xmlns="http://www.w3.org/2000/svg">
<path d="M5.376 2.44801C2.496 3.88801 1.2 5.90402 1.2 8.97602C1.2 10.848 1.488 11.808 2.352 13.008L3.504 14.544L2.16 15.648C-0.239998 17.568 2.112 18.48 5.616 17.04C6.528 16.656 8.208 16.32 9.312 16.32C11.76 16.32 15.168 14.64 16.512 12.816C17.952 10.848 17.904 7.00801 16.368 4.84801C14.064 1.63202 9.216 0.576015 5.376 2.44801ZM12.816 3.36001C16.272 4.89601 17.664 8.44802 16.08 11.52C14.976 13.68 12.864 14.832 9.264 15.312C7.488 15.552 5.376 15.984 4.656 16.272C2.832 16.992 2.832 16.992 3.744 15.408C4.512 14.016 4.512 13.92 3.408 12.768C1.824 11.088 1.584 7.92002 2.88 5.85602C3.984 4.08002 7.104 2.40001 9.36 2.40001C10.176 2.40001 11.712 2.83202 12.816 3.36001Z" fill="#EBFEF7"/>
<path d="M5.28003 6.24009C5.28003 6.52809 6.96003 6.72009 9.36003 6.72009C11.76 6.72009 13.44 6.52809 13.44 6.24009C13.44 5.95209 11.76 5.76009 9.36003 5.76009C6.96003 5.76009 5.28003 5.95209 5.28003 6.24009Z" fill="#EBFEF7"/>
<path d="M5.28003 8.64C5.28003 8.928 6.96003 9.12 9.36003 9.12C11.76 9.12 13.44 8.928 13.44 8.64C13.44 8.352 11.76 8.16 9.36003 8.16C6.96003 8.16 5.28003 8.352 5.28003 8.64Z" fill="#EBFEF7"/>
<path d="M5.28003 11.04C5.28003 11.328 6.57603 11.52 8.16003 11.52C9.74403 11.52 11.04 11.328 11.04 11.04C11.04 10.752 9.74403 10.56 8.16003 10.56C6.57603 10.56 5.28003 10.752 5.28003 11.04Z" fill="#EBFEF7"/>
<path d="M18.72 10.752C18.72 10.848 19.488 11.712 20.4 12.624C22.416 14.64 22.56 16.176 20.88 18.144C19.824 19.392 19.776 19.632 20.448 20.544C21.12 21.504 21.12 21.6 20.256 21.6C19.776 21.6 18.96 21.264 18.432 20.88C17.952 20.496 16.608 20.16 15.504 20.16C13.104 20.16 11.184 19.488 9.74398 18.144C8.49598 16.992 7.67998 17.328 8.68798 18.528C9.69598 19.776 12.96 21.072 15.12 21.12C16.176 21.12 17.568 21.456 18.24 21.84C19.68 22.656 22.368 22.752 22.848 22.032C23.04 21.696 22.656 21.072 22.032 20.592C20.928 19.776 20.928 19.776 21.84 18.72C23.376 17.04 23.136 13.872 21.408 12.048C20.208 10.8 18.72 10.08 18.72 10.752Z" fill="#EBFEF7"/>
<path d="M17.04 13.92C16.896 14.16 17.184 14.4 17.712 14.4C18.288 14.4 18.72 14.16 18.72 13.92C18.72 13.632 18.432 13.44 18.048 13.44C17.664 13.44 17.184 13.632 17.04 13.92Z" fill="#EBFEF7"/>
<path d="M13.68 16.32C13.008 16.608 13.584 16.752 15.744 16.752C17.424 16.8 18.72 16.608 18.72 16.32C18.72 15.744 15.024 15.744 13.68 16.32Z" fill="#EBFEF7"/>
</svg>
