<svg width="166" height="54" viewBox="0 0 166 54" fill="none" xmlns="http://www.w3.org/2000/svg">
<path d="M12.096 5.50806C5.61602 8.74806 2.70002 13.2841 2.70002 20.1961C2.70002 24.4081 3.34802 26.5681 5.29202 29.2681L7.88402 32.7241L4.86002 35.2081C-0.539979 39.5281 4.75202 41.5801 12.636 38.3401C14.688 37.4761 18.468 36.7201 20.952 36.7201C26.46 36.7201 34.128 32.9401 37.152 28.8361C40.392 24.4081 40.284 15.7681 36.828 10.9081C31.644 3.67206 20.736 1.29606 12.096 5.50806ZM28.836 7.56006C36.612 11.0161 39.744 19.0081 36.18 25.9201C33.696 30.7801 28.944 33.3721 20.844 34.4521C16.848 34.9921 12.096 35.9641 10.476 36.6121C6.37202 38.2321 6.37202 38.2321 8.42402 34.6681C10.152 31.5361 10.152 31.3201 7.66802 28.7281C4.10402 24.9481 3.56402 17.8201 6.48002 13.1761C8.96402 9.18006 15.984 5.40006 21.06 5.40006C22.896 5.40006 26.352 6.37206 28.836 7.56006Z" fill="#EBFEF7"/>
<path d="M11.88 14.0399C11.88 14.6879 15.66 15.1199 21.06 15.1199C26.46 15.1199 30.24 14.6879 30.24 14.0399C30.24 13.3919 26.46 12.9599 21.06 12.9599C15.66 12.9599 11.88 13.3919 11.88 14.0399Z" fill="#EBFEF7"/>
<path d="M11.88 19.44C11.88 20.088 15.66 20.52 21.06 20.52C26.46 20.52 30.24 20.088 30.24 19.44C30.24 18.792 26.46 18.36 21.06 18.36C15.66 18.36 11.88 18.792 11.88 19.44Z" fill="#EBFEF7"/>
<path d="M11.88 24.8399C11.88 25.4879 14.796 25.9199 18.36 25.9199C21.924 25.9199 24.84 25.4879 24.84 24.8399C24.84 24.1919 21.924 23.7599 18.36 23.7599C14.796 23.7599 11.88 24.1919 11.88 24.8399Z" fill="#EBFEF7"/>
<path d="M42.1201 24.192C42.1201 24.408 43.8481 26.352 45.9001 28.404C50.4361 32.94 50.7601 36.396 46.9801 40.824C44.6041 43.632 44.4961 44.172 46.0081 46.224C47.5201 48.384 47.5201 48.6 45.5761 48.6C44.4961 48.6 42.6601 47.844 41.4721 46.98C40.3921 46.116 37.3681 45.36 34.8841 45.36C29.4841 45.36 25.1641 43.848 21.9241 40.824C19.1161 38.232 17.2801 38.988 19.5481 41.688C21.8161 44.496 29.1601 47.412 34.0201 47.52C36.3961 47.52 39.5281 48.276 41.0401 49.14C44.2801 50.976 50.3281 51.192 51.4081 49.572C51.8401 48.816 50.9761 47.412 49.5721 46.332C47.0881 44.496 47.0881 44.496 49.1401 42.12C52.5961 38.34 52.0561 31.212 48.1681 27.108C45.4681 24.3 42.1201 22.68 42.1201 24.192Z" fill="#EBFEF7"/>
<path d="M38.3401 31.3199C38.0161 31.8599 38.6641 32.3999 39.8521 32.3999C41.1481 32.3999 42.1201 31.8599 42.1201 31.3199C42.1201 30.6719 41.4721 30.2399 40.6081 30.2399C39.7441 30.2399 38.6641 30.6719 38.3401 31.3199Z" fill="#EBFEF7"/>
<path d="M30.78 36.72C29.268 37.368 30.564 37.692 35.424 37.692C39.204 37.8 42.12 37.368 42.12 36.72C42.12 35.424 33.804 35.424 30.78 36.72Z" fill="#EBFEF7"/>
<path d="M63.16 21.728C62.936 21.776 62.76 21.864 62.632 21.992C62.6 22.024 62.568 22.08 62.536 22.16C62.52 22.224 62.504 22.272 62.488 22.304C62.456 22.352 62.424 22.632 62.392 23.144C62.376 23.656 62.36 24.264 62.344 24.968C62.328 25.672 62.32 26.408 62.32 27.176C62.32 27.928 62.344 28.584 62.392 29.144C62.44 29.608 62.56 30.064 62.752 30.512C62.96 30.944 63.296 31.224 63.76 31.352C64.112 31.384 64.44 31.336 64.744 31.208C65.064 31.064 65.304 30.832 65.464 30.512C65.64 30.144 65.712 29.76 65.68 29.36C65.664 28.944 65.696 28.536 65.776 28.136C66 28.168 66.248 28.176 66.52 28.16C66.808 28.144 67.096 28.136 67.384 28.136C67.672 28.136 67.952 28.144 68.224 28.16C68.512 28.176 68.768 28.216 68.992 28.28C69.264 29.112 69.336 29.944 69.208 30.776C69.08 31.592 68.8 32.328 68.368 32.984C67.936 33.64 67.368 34.184 66.664 34.616C65.976 35.032 65.192 35.248 64.312 35.264C63.736 35.344 63.144 35.344 62.536 35.264C61.928 35.2 61.36 35.048 60.832 34.808C60.304 34.552 59.856 34.2 59.488 33.752C59.136 33.304 58.928 32.744 58.864 32.072C58.832 31.496 58.808 30.896 58.792 30.272C58.776 29.648 58.76 28.952 58.744 28.184C58.744 27.4 58.744 26.52 58.744 25.544C58.76 24.552 58.776 23.408 58.792 22.112C58.76 21.84 58.768 21.568 58.816 21.296C58.88 21.008 58.96 20.744 59.056 20.504C59.2 20.088 59.376 19.704 59.584 19.352C59.808 19 60.072 18.688 60.376 18.416C60.552 18.288 60.744 18.184 60.952 18.104C61.16 18.008 61.376 17.928 61.6 17.864C62.336 17.624 63.064 17.528 63.784 17.576C64.504 17.624 65.176 17.792 65.8 18.08C66.44 18.352 67.016 18.72 67.528 19.184C68.04 19.648 68.448 20.184 68.752 20.792C69.056 21.384 69.24 22.032 69.304 22.736C69.368 23.44 69.272 24.16 69.016 24.896C68.424 25.024 67.84 25.072 67.264 25.04C66.704 24.992 66.12 24.912 65.512 24.8C65.464 24.496 65.432 24.152 65.416 23.768C65.416 23.384 65.376 23.032 65.296 22.712C65.216 22.376 65.064 22.104 64.84 21.896C64.632 21.688 64.296 21.592 63.832 21.608C63.624 21.64 63.4 21.68 63.16 21.728ZM81.2148 33.032C81.5668 33.64 81.8628 34.272 82.1028 34.928H82.1268C81.5668 34.928 80.9428 34.952 80.2548 35C79.5668 35.032 78.8628 35.024 78.1428 34.976H78.1188C77.9588 34.608 77.7588 34.168 77.5188 33.656C77.2788 33.144 77.0148 32.608 76.7268 32.048C76.4388 31.488 76.1268 30.936 75.7908 30.392C75.4548 29.848 75.1188 29.368 74.7828 28.952L74.7348 28.88C74.6868 29.248 74.6628 29.704 74.6628 30.248C74.6628 30.776 74.6708 31.328 74.6868 31.904C74.7188 32.464 74.7508 33 74.7828 33.512C74.8148 34.024 74.8388 34.432 74.8548 34.736C74.5828 34.848 74.2228 34.92 73.7748 34.952C73.3428 34.984 72.9108 35 72.4788 35C72.0468 35.016 71.6548 35.016 71.3027 35C70.9668 34.984 70.7588 34.984 70.6788 35C70.7108 35 70.7348 34.784 70.7508 34.352C70.7668 33.904 70.7748 33.32 70.7748 32.6C70.7748 31.88 70.7748 31.056 70.7748 30.128C70.7748 29.184 70.7668 28.216 70.7508 27.224C70.7508 26.216 70.7348 25.224 70.7028 24.248C70.6868 23.256 70.6708 22.352 70.6548 21.536C70.6388 20.704 70.6148 20 70.5828 19.424C70.5668 18.832 70.5428 18.432 70.5107 18.224C71.4068 18.096 72.3908 17.976 73.4628 17.864C74.5348 17.752 75.6548 17.76 76.8228 17.888C77.7668 17.936 78.6148 18.208 79.3668 18.704C80.1188 19.2 80.7028 19.816 81.1188 20.552C81.5348 21.288 81.7508 22.104 81.7668 23C81.7988 23.88 81.5668 24.736 81.0708 25.568C80.7668 26.144 80.3588 26.624 79.8468 27.008C79.3508 27.392 78.7188 27.608 77.9508 27.656H77.8548H77.8308V27.68C78.1668 28.272 78.5348 28.864 78.9348 29.456C79.3348 30.032 79.7268 30.616 80.1108 31.208C80.4948 31.8 80.8628 32.408 81.2148 33.032ZM75.6708 21.224C75.1268 21.24 74.5748 21.36 74.0148 21.584C74.0308 21.792 74.0388 22.032 74.0388 22.304C74.0548 22.56 74.0628 22.824 74.0628 23.096C74.0628 23.368 74.0628 23.632 74.0628 23.888C74.0788 24.144 74.1028 24.36 74.1348 24.536H74.1588C74.5268 24.568 74.9268 24.592 75.3588 24.608C75.7908 24.624 76.1988 24.6 76.5828 24.536C76.8868 24.472 77.1188 24.32 77.2788 24.08C77.4548 23.824 77.5588 23.552 77.5908 23.264C77.6228 22.96 77.5908 22.664 77.4948 22.376C77.3988 22.072 77.2388 21.832 77.0148 21.656C76.6628 21.336 76.2148 21.192 75.6708 21.224ZM92.6526 18.728C92.9566 18.76 93.2046 18.832 93.3966 18.944C93.4926 20.992 93.5246 23.064 93.4926 25.16C93.4606 27.24 93.3326 29.312 93.1086 31.376C92.9806 32.432 92.5806 33.328 91.9086 34.064C91.2366 34.8 90.3246 35.224 89.1726 35.336C88.5006 35.4 87.8046 35.368 87.0846 35.24C86.3646 35.128 85.7086 34.92 85.1166 34.616C84.5406 34.296 84.0526 33.88 83.6526 33.368C83.2686 32.84 83.0606 32.208 83.0286 31.472C83.0286 29.36 83.0526 27.232 83.1006 25.088C83.1486 22.944 83.1566 20.816 83.1246 18.704L83.1006 18.68H83.1246C83.3646 18.68 83.6286 18.672 83.9166 18.656C84.2206 18.64 84.5246 18.632 84.8286 18.632C85.1326 18.632 85.4286 18.648 85.7166 18.68C86.0046 18.696 86.2686 18.736 86.5086 18.8V18.824C86.3326 22.696 86.4046 26.624 86.7246 30.608C86.8366 30.992 87.0366 31.272 87.3246 31.448C87.6286 31.624 87.9406 31.704 88.2606 31.688C88.5806 31.672 88.8766 31.56 89.1486 31.352C89.4206 31.144 89.5966 30.856 89.6766 30.488C89.7566 28.568 89.7966 26.616 89.7966 24.632C89.8126 22.648 89.8446 20.728 89.8926 18.872C90.1006 18.856 90.3646 18.832 90.6846 18.8C91.0206 18.752 91.3566 18.72 91.6926 18.704C92.0286 18.688 92.3486 18.696 92.6526 18.728ZM105.13 20.264C105.082 20.92 105.066 21.552 105.082 22.16V22.184C104.154 23.752 103.146 25.288 102.058 26.792C100.97 28.296 99.9218 29.824 98.9138 31.376L98.8898 31.4C99.5298 31.32 100.074 31.264 100.522 31.232C100.986 31.2 101.426 31.184 101.842 31.184C102.274 31.168 102.722 31.16 103.186 31.16C103.666 31.144 104.25 31.12 104.938 31.088V31.16C105.018 31.768 105.042 32.416 105.01 33.104C104.978 33.792 104.938 34.424 104.89 35V35.048C103.37 34.968 101.778 34.92 100.114 34.904C98.4658 34.888 96.7858 34.928 95.0738 35.024C94.9778 34.736 94.9218 34.44 94.9058 34.136C94.8898 33.816 94.8818 33.496 94.8818 33.176C94.8818 32.84 94.8818 32.512 94.8818 32.192C94.8978 31.856 94.8898 31.52 94.8578 31.184C95.2098 30.4 95.6258 29.616 96.1058 28.832C96.5858 28.048 97.0898 27.272 97.6178 26.504C98.1618 25.736 98.6978 24.984 99.2258 24.248C99.7698 23.512 100.274 22.816 100.738 22.16C100.37 22.112 99.9138 22.072 99.3698 22.04C98.8418 22.008 98.2978 21.984 97.7378 21.968C97.1778 21.936 96.6418 21.912 96.1298 21.896C95.6338 21.864 95.2418 21.848 94.9538 21.848C94.8578 21.688 94.8018 21.472 94.7858 21.2C94.7698 20.928 94.7618 20.64 94.7618 20.336C94.7618 20.032 94.7538 19.728 94.7378 19.424C94.7378 19.104 94.6978 18.816 94.6178 18.56V18.536C94.6178 18.504 94.6018 18.472 94.5698 18.44C96.2178 18.28 97.9218 18.224 99.6818 18.272C101.442 18.304 103.242 18.328 105.082 18.344C105.162 18.968 105.178 19.608 105.13 20.264ZM114.169 28.688C114.169 28.72 114.145 28.736 114.097 28.736C113.601 28.816 113.081 28.88 112.537 28.928C112.009 28.96 111.505 29.016 111.025 29.096H111.001C110.921 30.104 110.873 31.112 110.857 32.12C110.841 33.112 110.825 34.064 110.809 34.976C110.489 35.008 110.105 35.032 109.657 35.048C109.225 35.064 108.793 35.072 108.361 35.072C107.929 35.072 107.545 35.064 107.209 35.048C106.889 35.032 106.697 35.008 106.633 34.976L106.609 34.952C106.609 33.992 106.609 33.096 106.609 32.264C106.609 31.416 106.609 30.6 106.609 29.816C106.625 29.032 106.633 28.248 106.633 27.464C106.633 26.664 106.633 25.824 106.633 24.944C106.649 24.064 106.657 23.12 106.657 22.112C106.657 21.088 106.657 19.952 106.657 18.704V18.68C106.929 18.632 107.321 18.584 107.833 18.536C108.345 18.488 108.921 18.44 109.561 18.392C110.217 18.344 110.905 18.312 111.625 18.296C112.361 18.264 113.081 18.256 113.785 18.272C114.489 18.272 115.153 18.304 115.777 18.368C116.401 18.432 116.937 18.52 117.385 18.632C117.385 18.84 117.385 19.104 117.385 19.424C117.401 19.744 117.409 20.08 117.409 20.432C117.409 20.768 117.409 21.096 117.409 21.416C117.409 21.72 117.401 21.976 117.385 22.184C116.953 22.216 116.465 22.248 115.921 22.28C115.393 22.312 114.841 22.344 114.265 22.376C113.705 22.392 113.137 22.416 112.561 22.448C112.001 22.48 111.473 22.52 110.977 22.568C110.801 22.984 110.729 23.384 110.761 23.768C110.793 24.152 110.881 24.472 111.025 24.728C111.041 24.744 111.057 24.752 111.073 24.752C111.297 24.784 111.545 24.808 111.817 24.824C112.105 24.824 112.385 24.824 112.657 24.824C112.929 24.824 113.193 24.816 113.449 24.8C113.705 24.784 113.921 24.768 114.097 24.752C114.145 24.864 114.169 25.08 114.169 25.4C114.185 25.72 114.185 26.08 114.169 26.48C114.153 26.864 114.137 27.256 114.121 27.656C114.121 28.056 114.137 28.4 114.169 28.688ZM126.988 19.328C127.452 19.744 127.78 20.232 127.972 20.792C128.084 21.032 128.164 21.28 128.212 21.536C128.276 21.776 128.324 22.024 128.356 22.28C128.388 22.68 128.404 23.08 128.404 23.48C128.42 23.864 128.42 24.256 128.404 24.656C128.356 25.504 128.34 26.328 128.356 27.128C128.372 27.928 128.348 28.744 128.284 29.576L128.212 30.368C128.18 30.928 128.092 31.496 127.948 32.072C127.804 32.632 127.588 33.144 127.3 33.608C127.028 33.992 126.668 34.304 126.22 34.544C125.788 34.768 125.324 34.944 124.828 35.072C124.38 35.2 123.924 35.28 123.46 35.312C123.012 35.344 122.556 35.344 122.092 35.312C121.756 35.28 121.428 35.232 121.108 35.168C120.804 35.12 120.508 35.032 120.22 34.904C119.948 34.776 119.7 34.616 119.476 34.424C119.252 34.216 119.068 33.952 118.924 33.632C118.7 33.232 118.548 32.808 118.468 32.36C118.404 31.896 118.364 31.432 118.348 30.968C118.3 29.72 118.244 28.472 118.18 27.224C118.132 25.96 118.148 24.696 118.228 23.432C118.244 22.712 118.332 21.992 118.492 21.272C118.668 20.536 119.004 19.888 119.5 19.328C119.66 19.168 119.844 19.024 120.052 18.896C120.58 18.64 121.148 18.456 121.756 18.344C122.38 18.216 122.996 18.168 123.604 18.2C124.228 18.232 124.828 18.344 125.404 18.536C125.996 18.712 126.524 18.976 126.988 19.328ZM125.404 27.8V26.648L125.356 25.016C125.356 25 125.34 24.84 125.308 24.536C125.292 24.216 125.276 23.92 125.26 23.648C125.228 23.2 125.1 22.792 124.876 22.424C124.668 22.056 124.38 21.784 124.012 21.608C123.692 21.48 123.364 21.456 123.028 21.536C122.692 21.616 122.396 21.752 122.14 21.944C121.58 22.376 121.204 22.928 121.012 23.6C120.884 24.208 120.804 24.848 120.772 25.52C120.756 26.192 120.764 26.864 120.796 27.536C120.876 28.096 120.932 28.672 120.964 29.264C120.996 29.84 121.092 30.392 121.252 30.92C121.412 31.24 121.644 31.488 121.948 31.664C122.252 31.84 122.58 31.944 122.932 31.976C123.284 31.992 123.636 31.944 123.988 31.832C124.34 31.704 124.636 31.504 124.876 31.232C125.02 31.04 125.124 30.888 125.188 30.776C125.252 30.648 125.292 30.512 125.308 30.368C125.324 30.224 125.324 30.056 125.308 29.864C125.308 29.656 125.324 29.384 125.356 29.048C125.372 28.728 125.38 28.448 125.38 28.208C125.396 27.968 125.404 27.832 125.404 27.8ZM140.582 33.032C140.934 33.64 141.23 34.272 141.47 34.928H141.494C140.934 34.928 140.31 34.952 139.622 35C138.934 35.032 138.23 35.024 137.51 34.976H137.486C137.326 34.608 137.126 34.168 136.886 33.656C136.646 33.144 136.382 32.608 136.094 32.048C135.806 31.488 135.494 30.936 135.158 30.392C134.822 29.848 134.486 29.368 134.15 28.952L134.102 28.88C134.054 29.248 134.03 29.704 134.03 30.248C134.03 30.776 134.038 31.328 134.054 31.904C134.086 32.464 134.118 33 134.15 33.512C134.182 34.024 134.206 34.432 134.222 34.736C133.95 34.848 133.59 34.92 133.142 34.952C132.71 34.984 132.278 35 131.846 35C131.414 35.016 131.022 35.016 130.67 35C130.334 34.984 130.126 34.984 130.046 35C130.078 35 130.102 34.784 130.118 34.352C130.134 33.904 130.142 33.32 130.142 32.6C130.142 31.88 130.142 31.056 130.142 30.128C130.142 29.184 130.134 28.216 130.118 27.224C130.118 26.216 130.102 25.224 130.07 24.248C130.054 23.256 130.038 22.352 130.022 21.536C130.006 20.704 129.982 20 129.95 19.424C129.934 18.832 129.91 18.432 129.878 18.224C130.774 18.096 131.758 17.976 132.83 17.864C133.902 17.752 135.022 17.76 136.19 17.888C137.134 17.936 137.982 18.208 138.734 18.704C139.486 19.2 140.07 19.816 140.486 20.552C140.902 21.288 141.118 22.104 141.134 23C141.166 23.88 140.934 24.736 140.438 25.568C140.134 26.144 139.726 26.624 139.214 27.008C138.718 27.392 138.086 27.608 137.318 27.656H137.222H137.198V27.68C137.534 28.272 137.902 28.864 138.302 29.456C138.702 30.032 139.094 30.616 139.478 31.208C139.862 31.8 140.23 32.408 140.582 33.032ZM135.038 21.224C134.494 21.24 133.942 21.36 133.382 21.584C133.398 21.792 133.406 22.032 133.406 22.304C133.422 22.56 133.43 22.824 133.43 23.096C133.43 23.368 133.43 23.632 133.43 23.888C133.446 24.144 133.47 24.36 133.502 24.536H133.526C133.894 24.568 134.294 24.592 134.726 24.608C135.158 24.624 135.566 24.6 135.95 24.536C136.254 24.472 136.486 24.32 136.646 24.08C136.822 23.824 136.926 23.552 136.958 23.264C136.99 22.96 136.958 22.664 136.862 22.376C136.766 22.072 136.606 21.832 136.382 21.656C136.03 21.336 135.582 21.192 135.038 21.224ZM152.02 18.728C152.324 18.76 152.572 18.832 152.764 18.944C152.86 20.992 152.892 23.064 152.86 25.16C152.828 27.24 152.7 29.312 152.476 31.376C152.348 32.432 151.948 33.328 151.276 34.064C150.604 34.8 149.692 35.224 148.54 35.336C147.868 35.4 147.172 35.368 146.452 35.24C145.732 35.128 145.076 34.92 144.484 34.616C143.908 34.296 143.42 33.88 143.02 33.368C142.636 32.84 142.428 32.208 142.396 31.472C142.396 29.36 142.42 27.232 142.468 25.088C142.516 22.944 142.524 20.816 142.492 18.704L142.468 18.68H142.492C142.732 18.68 142.996 18.672 143.284 18.656C143.588 18.64 143.892 18.632 144.196 18.632C144.5 18.632 144.796 18.648 145.084 18.68C145.372 18.696 145.636 18.736 145.876 18.8V18.824C145.7 22.696 145.772 26.624 146.092 30.608C146.204 30.992 146.404 31.272 146.692 31.448C146.996 31.624 147.308 31.704 147.628 31.688C147.948 31.672 148.244 31.56 148.516 31.352C148.788 31.144 148.964 30.856 149.044 30.488C149.124 28.568 149.164 26.616 149.164 24.632C149.18 22.648 149.212 20.728 149.26 18.872C149.468 18.856 149.732 18.832 150.052 18.8C150.388 18.752 150.724 18.72 151.06 18.704C151.396 18.688 151.716 18.696 152.02 18.728ZM164.665 22.832C164.729 24.32 164.721 25.832 164.641 27.368L164.569 35.024C164.329 34.992 164.065 34.976 163.777 34.976C163.489 34.976 163.201 34.976 162.913 34.976C162.625 34.976 162.345 34.984 162.073 35C161.817 35 161.593 35 161.401 35C161.369 34.312 161.345 33.568 161.329 32.768C161.329 31.968 161.321 31.152 161.305 30.32C161.305 29.488 161.281 28.672 161.233 27.872C161.201 27.072 161.145 26.336 161.065 25.664C160.953 25.84 160.825 26.12 160.681 26.504C160.537 26.872 160.393 27.256 160.249 27.656C160.105 28.056 159.969 28.408 159.841 28.712C159.713 29.016 159.617 29.168 159.553 29.168C159.473 29.168 159.377 29.088 159.265 28.928C159.169 28.752 159.065 28.536 158.953 28.28C158.857 28.024 158.753 27.752 158.641 27.464C158.529 27.176 158.433 26.912 158.353 26.672C158.273 26.432 158.201 26.232 158.137 26.072C158.089 25.912 158.065 25.832 158.065 25.832C157.937 27.336 157.889 28.856 157.921 30.392C157.969 31.928 158.041 33.44 158.137 34.928C157.625 35.008 157.065 35.04 156.457 35.024C155.849 35.008 155.289 35 154.777 35C154.745 35 154.721 34.976 154.705 34.928C154.689 34.864 154.673 34.712 154.657 34.472C154.641 34.232 154.625 33.872 154.609 33.392C154.609 32.896 154.609 32.248 154.609 31.448C154.609 30.648 154.609 29.656 154.609 28.472C154.625 27.288 154.633 25.88 154.633 24.248C154.649 22.616 154.665 20.712 154.681 18.536C154.889 18.472 155.129 18.432 155.401 18.416C155.673 18.4 155.953 18.4 156.241 18.416C156.529 18.416 156.817 18.424 157.105 18.44C157.393 18.44 157.673 18.432 157.945 18.416H157.969C158.113 18.576 158.257 18.824 158.401 19.16C158.545 19.48 158.681 19.824 158.809 20.192C158.937 20.56 159.057 20.912 159.169 21.248C159.297 21.584 159.425 21.848 159.553 22.04C159.601 22.088 159.649 22.112 159.697 22.112C159.745 22.128 159.817 21.976 159.913 21.656C160.025 21.336 160.137 20.968 160.249 20.552C160.377 20.12 160.513 19.696 160.657 19.28C160.817 18.864 160.969 18.56 161.113 18.368C161.225 18.384 161.425 18.384 161.713 18.368C162.017 18.352 162.337 18.336 162.673 18.32C163.025 18.304 163.377 18.296 163.729 18.296C164.097 18.28 164.409 18.272 164.665 18.272C164.601 19.808 164.601 21.328 164.665 22.832Z" fill="#EBFEF7"/>
</svg>
